<svg xmlns="http://www.w3.org/2000/svg" viewBox="0 0 460 345" width="460" height="345" role="img" aria-label="Ресепшн студии" preserveAspectRatio="xMidYMid slice">
<defs>
  <filter id="far" x="-30%" y="-30%" width="160%" height="160%"><feGaussianBlur stdDeviation="25.3"/></filter>
  <filter id="mid" x="-30%" y="-30%" width="160%" height="160%"><feGaussianBlur stdDeviation="7.4"/></filter>
  <filter id="near" x="-30%" y="-30%" width="160%" height="160%"><feGaussianBlur stdDeviation="3.2"/></filter>
  <filter id="grain"><feTurbulence type="fractalNoise" baseFrequency="0.9" numOctaves="4"/><feColorMatrix type="saturate" values="0"/></filter>
  <radialGradient id="vig" cx="50%" cy="44%" r="76%"><stop offset="52%" stop-color="#000" stop-opacity="0"/><stop offset="100%" stop-color="#2A1B10" stop-opacity=".40"/></radialGradient>
  <linearGradient id="bg" x1="0" y1="0" x2=".8" y2="1"><stop offset="0" stop-color="#F2E5CF"/><stop offset=".55" stop-color="#E0CBAA"/><stop offset="1" stop-color="#BE9E76"/></linearGradient>
</defs>
<rect width="460" height="345" fill="url(#bg)"/>
<g filter="url(#far)"><ellipse cx="70" cy="60" rx="160" ry="130" fill="#FDF4E0" opacity="0.85"/><ellipse cx="400" cy="300" rx="140" ry="110" fill="#A8835A" opacity="0.35"/></g>
<g filter="url(#mid)"><rect x="0" y="196" width="460" height="10" fill="#B08A5E" opacity="0.45"/><rect x="58" y="206" width="344" height="150" fill="#C08F5D" opacity="0.9" rx="6"/><rect x="58" y="206" width="344" height="16" fill="#EBCB9E" opacity="0.7" rx="4"/><rect x="292" y="62" width="96" height="106" fill="#F8EBD2" opacity="0.8" rx="3"/><rect x="302" y="74" width="76" height="82" fill="#DCC4A0" opacity="0.7" rx="2"/></g>
<g filter="url(#near)"><ellipse cx="120" cy="186" rx="17" ry="30" fill="#E9D3B0" opacity="0.9"/><ellipse cx="360" cy="168" rx="22" ry="22" fill="#FBEBC8" opacity="0.85"/><rect x="196" y="190" width="66" height="14" fill="#F2E2C4" opacity="0.55" rx="3"/></g>
<rect width="460" height="345" fill="url(#vig)"/>
<rect width="460" height="345" filter="url(#grain)" opacity=".09"/>
</svg>
